<?xml version="1.0" standalone="no"?>
<!DOCTYPE svg PUBLIC "-//W3C//DTD SVG 20010904//EN"
 "http://www.w3.org/TR/2001/REC-SVG-20010904/DTD/svg10.dtd">
<svg version="1.0" xmlns="http://www.w3.org/2000/svg"
 width="1024.000000pt" height="1024.000000pt" viewBox="0 0 1024.000000 1024.000000"
 preserveAspectRatio="xMidYMid meet">
<metadata>
Created by potrace 1.14, written by Peter Selinger 2001-2017
</metadata>
<g transform="translate(0.000000,1024.000000) scale(0.100000,-0.100000)"
fill="#000000" stroke="none">
<path d="M3090 9090 c-1118 -539 -2037 -983 -2041 -987 -4 -4 -213 -908 -464
-2008 -251 -1100 -477 -2090 -502 -2200 -41 -177 -44 -202 -32 -222 8 -13 642
-810 1409 -1773 l1395 -1749 2270 0 2270 0 1395 1749 c767 963 1401 1760 1409
1773 12 20 9 45 -32 222 -25 110 -251 1100 -502 2200 -251 1100 -460 2004
-464 2008 -7 7 -3968 1918 -4047 1952 -30 14 -66 -3 -2064 -965z m3360 -4102
c535 -1344 979 -2458 987 -2475 l13 -33 -423 0 -423 0 -184 488 c-100 268
-210 558 -243 645 l-60 157 -1005 -2 -1006 -3 -218 -575 c-119 -316 -229 -605
-244 -643 l-26 -67 -420 0 c-396 0 -420 1 -414 17 4 10 447 1124 984 2475
l977 2458 366 0 365 0 974 -2442z"/>
<path d="M4741 5414 c-199 -520 -361 -948 -358 -950 2 -2 333 -3 735 -2 l731
3 -367 948 c-201 521 -369 947 -372 947 -3 0 -169 -426 -369 -946z"/>
</g>
</svg>
