<?xml version="1.0" encoding="UTF-8"?>
<!--Generator: Apple Native CoreSVG 232.5-->
<!DOCTYPE svg
PUBLIC "-//W3C//DTD SVG 1.1//EN"
       "http://www.w3.org/Graphics/SVG/1.1/DTD/svg11.dtd">
<svg version="1.1" xmlns="http://www.w3.org/2000/svg" xmlns:xlink="http://www.w3.org/1999/xlink" width="8.26172" height="16.3379">
 <g>
  <rect height="16.3379" opacity="0" width="8.26172" x="0" y="0"/>
  <path d="M0 14.3262C0 14.8047 0.341797 15.127 0.859375 15.127L7.04102 15.127C7.55859 15.127 7.90039 14.8047 7.90039 14.3262C7.90039 13.8574 7.55859 13.5352 7.04102 13.5352L5.07812 13.5352L5.07812 6.08398C5.07812 5.55664 4.73633 5.20508 4.22852 5.20508L1.13281 5.20508C0.625 5.20508 0.273438 5.51758 0.273438 5.98633C0.273438 6.47461 0.625 6.79688 1.13281 6.79688L3.27148 6.79688L3.27148 13.5352L0.859375 13.5352C0.341797 13.5352 0 13.8574 0 14.3262ZM2.42188 1.41602C2.42188 2.19727 3.04688 2.82227 3.82812 2.82227C4.61914 2.82227 5.22461 2.19727 5.22461 1.41602C5.22461 0.625 4.61914 0 3.82812 0C3.04688 0 2.42188 0.625 2.42188 1.41602Z" fill="currentColor" fill-opacity="0.85"/>
 </g>
</svg>
